{"title":"Ceremony (2010) DvdRip [Xvid] {1337X}-X","uid":6498035,"size":734369792,"categoryP":"video","categoryS":"movies","magnet":"?xt=urn:btih:f6e0e3780e4ceb6f24ea2cdf91d598024ac18c44&amp;dn=Ceremony+%282010%29+DvdRip+%5BXvid%5D+%7B1337X%7D-X&amp;tr=udp%3A%2F%2Ftracker.openbittorrent.com%3A80&amp;tr=udp%3A%2F%2Fopen.demonii.com%3A1337&amp;tr=udp%3A%2F%2Ftracker.coppersurfer.tk%3A6969&amp;tr=udp%3A%2F%2Fexodus.desync.com%3A6969","seeders":0,"leechers":1,"uploader":"hiest","files":-1,"time":1309149327,"description":" ##     ## ##     ##  ######  ########    ###    ##    ##  ######   ##     ## \n ###   ### ##     ## ##    ##    ##      ## ##   ###   ## ##    ##   ##   ##  \n #### #### ##     ## ##          ##     ##   ##  ####  ## ##          ## ##   \n ## ### ## ##     ##  ######     ##    ##     ## ## ## ## ##   ####    ###    \n ##     ## ##     ##       ##    ##    ######### ##  #### ##    ##    ## ##   \n ##     ## ##     ## ##    ##    ##    ##     ## ##   ### ##    ##   ##   ##  \n ##     ##  #######   ######     ##    ##     ## ##    ##  ######   ##     ##\n\n\n\n Video\n ID : 0\n Format : MPEG-4 Visual\n Format profile : Advanced Simple@L5\n Format settings, BVOP : Yes\n Format settings, QPel : No\n Format settings, GMC : No warppoints\n Format settings, Matrix : Default (H.263)\n Muxing mode : Packed bitstream\n Codec ID : XVID\n Codec ID/Hint : XviD\n Duration : 1h 29mn\n Bit rate : 977 Kbps\n Width : 720 pixels\n Height : 288 pixels\n Display aspect ratio : 2.500\n Frame rate : 23.976 fps\n Color space : YUV\n Chroma subsampling : 4:2:0\n Bit depth : 8 bits\n Scan type : Progressive\n Bits/(Pixel*Frame) : 0.196\n Stream size : 627 MiB (89%)\n Writing library : XviD 57\n\n Audio\n ID : 1\n Format : MPEG Audio\n Format version : Version 1\n Format profile : Layer 3\n Mode : Joint stereo\n Mode extension : MS Stereo\n Codec ID : 55\n Codec ID/Hint : MP3\n Duration : 1h 29mn\n Bit rate mode : Variable\n Bit rate : 102 Kbps\n Nominal bit rate : 112 Kbps\n Channel(s) : 2 channels\n Sampling rate : 48.0 KHz\n Stream size : 65.4 MiB (9%)\n Alignment : Aligned on interleaves\n Interleave, duration : 24 ms (0.58 video frame)\n Interleave, preload duration : 180 ms\n Writing library : LAME3.97 \n Encoding settings : -m j -V 4 -q 2 -lowpass 16 --abr 112\n\n IMDB\n &lt;a href=&quot; http://www.imdb.com/title/tt1341341/&quot; rel=&quot;nofollow&quot; target=&quot;_NEW&quot;&gt; http://www.imdb.com/title/tt1341341/&lt;/a&gt;\n\n\n Plot:\n\n Sam Davis (Michael Angarano) convinces his former best friend to spend a weekend\n with him to rekindle their friendship at an elegant beachside estate owned by a\n famous documentary filmmaker (Lee Pace). However, it soon becomes clear that Sam\n is secretly infatuated with his ex, Zoe (Uma Thurman), who is now the\n filmmaker's fiancÃƒÂ©e, and that his true intention is to thwart their impending\n nuptials. As Sam's plan begins to unravel, he is forced to realize how\n complicated love and friendship can be\n\n\n Screens:\n\n &lt;a href=&quot; http://leetleech.org/images/59978608033936759255.jpg&quot; rel=&quot;nofollow&quot; target=&quot;_NEW&quot;&gt; http://leetleech.org/images/59978608033936759255.jpg&lt;/a&gt;\n\n\n \n ##     ## ##     ##  ######  ########    ###    ##    ##  ######   ##     ## \n ###   ### ##     ## ##    ##    ##      ## ##   ###   ## ##    ##   ##   ##  \n #### #### ##     ## ##          ##     ##   ##  ####  ## ##          ## ##   \n ## ### ## ##     ##  ######     ##    ##     ## ## ## ## ##   ####    ###    \n ##     ## ##     ##       ##    ##    ######### ##  #### ##    ##    ## ##   \n ##     ## ##     ## ##    ##    ##    ##     ## ##   ### ##    ##   ##   ##  \n ##     ##  #######   ######     ##    ##     ## ##    ##  ######   ##     ##","torrent":{"xt":"urn:btih:f6e0e3780e4ceb6f24ea2cdf91d598024ac18c44","amp;dn":"Ceremony+%282010%29+DvdRip+%5BXvid%5D+%7B1337X%7D-X","amp;tr":["udp%3A%2F%2Ftracker.openbittorrent.com%3A80","udp%3A%2F%2Fopen.demonii.com%3A1337","udp%3A%2F%2Ftracker.coppersurfer.tk%3A6969","udp%3A%2F%2Fexodus.desync.com%3A6969"],"infoHash":"f6e0e3780e4ceb6f24ea2cdf91d598024ac18c44","infoHashBuffer":{"type":"Buffer","data":[246,224,227,120,14,76,235,111,36,234,44,223,145,213,152,2,74,193,140,68]},"announce":[],"urlList":[]}}